<svg xmlns="http://www.w3.org/2000/svg" viewBox="0 0 720 420" role="img" aria-label="Self destruct bomb truck game portrait">
  <defs>
    <linearGradient id="rustBody" x1="0" x2="1" y1="0" y2="1"><stop offset="0" stop-color="#9a6f52"/><stop offset="0.36" stop-color="#5f4b38"/><stop offset="0.7" stop-color="#3a2921"/><stop offset="1" stop-color="#1b1210"/></linearGradient>
    <linearGradient id="cabSteel" x1="0" x2="1" y1="0" y2="1"><stop offset="0" stop-color="#b08865"/><stop offset="0.45" stop-color="#665140"/><stop offset="1" stop-color="#241917"/></linearGradient>
    <linearGradient id="tarp" x1="0" x2="1" y1="0" y2="1"><stop offset="0" stop-color="#7b7659"/><stop offset="1" stop-color="#2f3329"/></linearGradient>
    <linearGradient id="redTank" x1="0" x2="1" y1="0" y2="1"><stop offset="0" stop-color="#c6523a"/><stop offset="0.62" stop-color="#69271f"/><stop offset="1" stop-color="#26110e"/></linearGradient>
    <filter id="grit" x="-8%" y="-8%" width="116%" height="116%"><feTurbulence type="fractalNoise" baseFrequency="0.78" numOctaves="4" seed="231"/><feColorMatrix type="saturate" values="0"/><feComponentTransfer><feFuncA type="table" tableValues="0 0.34"/></feComponentTransfer><feBlend mode="multiply" in2="SourceGraphic"/></filter>
    <filter id="shadow" x="-18%" y="-18%" width="136%" height="144%"><feDropShadow dx="0" dy="12" stdDeviation="10" flood-color="#050403" flood-opacity="0.62"/></filter>
    <filter id="smokeBlur"><feGaussianBlur stdDeviation="7"/></filter>
  </defs>
  <g opacity="0.82" filter="url(#smokeBlur)">
    <circle cx="188" cy="132" r="46" fill="#111" opacity="0.26"/>
    <circle cx="510" cy="100" r="60" fill="#141414" opacity="0.22"/>
    <circle cx="618" cy="144" r="42" fill="#111" opacity="0.2"/>
  </g>
  <g filter="url(#shadow)">
    <ellipse cx="376" cy="344" rx="258" ry="34" fill="#0c0807" opacity="0.58"/>
    <path d="M90 239h78l34-77h159l30 72h189l42 42-14 48H95l-34-34Z" fill="url(#rustBody)" stroke="#160e0b" stroke-width="9" filter="url(#grit)"/>
    <path d="M190 99h139c24 0 42 16 50 39l33 98H151l21-103c3-20 8-34 18-34Z" fill="url(#cabSteel)" stroke="#1d1511" stroke-width="10" filter="url(#grit)"/>
    <path d="M195 123h63l-13 61h-72l10-43c2-10 5-18 12-18Z" fill="#22241f" stroke="#100c0a" stroke-width="7"/>
    <path d="M279 123h44c15 0 25 10 30 26l12 35h-77Z" fill="#24251f" stroke="#100c0a" stroke-width="7"/>
    <path d="M176 164h77M287 164h71" stroke="#8d806a" stroke-width="5" opacity="0.55"/>
    <g fill="#34271e" stroke="#0d0907" stroke-width="8"><circle cx="158" cy="317" r="43"/><circle cx="424" cy="318" r="44"/><circle cx="538" cy="318" r="42"/></g>
    <g fill="#8e8069" stroke="#281b15" stroke-width="5"><circle cx="158" cy="317" r="17"/><circle cx="424" cy="318" r="18"/><circle cx="538" cy="318" r="17"/></g>
    <path d="M391 122h142l54 44 17 94H376Z" fill="url(#tarp)" stroke="#1b1b15" stroke-width="9" filter="url(#grit)"/>
    <path d="M399 132c52-23 114-19 166 23" fill="none" stroke="#a49b75" stroke-width="8" opacity="0.24"/>
    <g stroke="#21150f" stroke-width="7" fill="none"><path d="M407 139v118"/><path d="M457 120v140"/><path d="M512 124v139"/><path d="M566 159v103"/></g>
    <g stroke="#1b100c" stroke-width="9" fill="none" stroke-linecap="round"><path d="M383 186c43 24 85-19 125 4 31 18 52 7 77-9"/><path d="M402 222c55-16 107 12 170-8"/></g>
    <g>
      <rect x="407" y="76" width="31" height="87" rx="9" fill="url(#redTank)" stroke="#20100d" stroke-width="6" transform="rotate(-10 422 120)"/>
      <rect x="446" y="67" width="32" height="92" rx="9" fill="#8d4e2d" stroke="#20100d" stroke-width="6" transform="rotate(7 462 112)"/>
      <rect x="487" y="77" width="33" height="88" rx="9" fill="#b77736" stroke="#20100d" stroke-width="6" transform="rotate(-5 503 121)"/>
      <rect x="528" y="70" width="31" height="91" rx="9" fill="#6c744c" stroke="#20100d" stroke-width="6" transform="rotate(10 543 115)"/>
      <path d="M381 142c53-34 125-36 207-5" fill="none" stroke="#2a1712" stroke-width="8"/>
    </g>
    <g fill="#39231b" stroke="#120b08" stroke-width="6"><path d="M111 201h64l-5 34h-72Z"/><path d="M204 210h156l-7 37H196Z"/><path d="M412 228h155l12 34H399Z"/></g>
    <path d="M71 279h544" stroke="#100a08" stroke-width="10" opacity="0.72"/>
    <path d="M61 267l77-25 66 17 74-17 78 16 79-19 84 22 81-21" fill="none" stroke="#c4936d" stroke-width="5" opacity="0.34"/>
    <g fill="#c0b08b" stroke="#281811" stroke-width="5"><path d="M92 244l-44 9 35 15Z"/><path d="M128 236l-39-32 8 48Z"/><path d="M172 222l-17-45-18 45Z"/><path d="M227 99l-8-52-22 50Z"/><path d="M277 94l-10-53-23 54Z"/><path d="M337 121l20-48-42 33Z"/></g>
    <g fill="#d9d1ad" opacity="0.82" font-family="Microsoft YaHei, Noto Sans SC, Arial" font-weight="900">
      <text x="196" y="158" font-size="26" transform="rotate(-7 196 158)">自爆</text>
      <text x="198" y="220" font-size="30" transform="rotate(2 198 220)">自爆卡车</text>
      <text x="475" y="229" font-size="27" transform="rotate(4 475 229)">同归于尽</text>
    </g>
    <path d="M121 281c109-22 200-22 322 2 62 12 109 10 157-4" fill="none" stroke="#070403" stroke-width="12" opacity="0.44"/>
    <g opacity="0.75"><circle cx="111" cy="229" r="8" fill="#d8b15f"/><circle cx="603" cy="255" r="7" fill="#d13f2d"/><rect x="77" y="251" width="34" height="14" rx="4" fill="#20120d"/></g>
  </g>
</svg>